<?xml version="1.0" encoding="utf-8"?>
<!-- Generator: Adobe Illustrator 24.3.0, SVG Export Plug-In . SVG Version: 6.00 Build 0)  -->
<svg version="1.1" id="Layer_1" xmlns="http://www.w3.org/2000/svg" xmlns:xlink="http://www.w3.org/1999/xlink" x="0px" y="0px"
	 viewBox="0 0 614.353 98.71" style="enable-background:new 0 0 614.353 98.71;" xml:space="preserve">
<style type="text/css">
	.st0{fill:url(#SVGID_1_);}
	.st1{fill:url(#SVGID_2_);}
	.st2{fill:#FFFFFF;}
	.st3{fill:url(#SVGID_3_);}
	.st4{fill:url(#SVGID_4_);}
	.st5{fill:url(#SVGID_5_);}
	.st6{fill:url(#SVGID_6_);}
	.st7{fill:#DBFF4B;}
</style>
<g>
	<g>
		<g>
			<linearGradient id="SVGID_1_" gradientUnits="userSpaceOnUse" x1="29.9116" y1="63.5788" x2="92.2237" y2="63.5788">
				<stop  offset="0" style="stop-color:#FFFFFF"/>
				<stop  offset="1" style="stop-color:#DBFF4B"/>
			</linearGradient>
			<path class="st0" d="M92.224,32.423v62.312H70.405V61.209c-10.956,7.132-18.206,19.508-18.206,33.526H29.912
				c0-26.687,16.868-49.514,40.494-58.371C77.197,33.819,84.552,32.423,92.224,32.423z"/>
		</g>
		<g>
			<linearGradient id="SVGID_2_" gradientUnits="userSpaceOnUse" x1="3.9521" y1="50.6049" x2="92.2237" y2="50.6049">
				<stop  offset="0" style="stop-color:#FFFFFF"/>
				<stop  offset="1" style="stop-color:#DBFF4B"/>
			</linearGradient>
			<path class="st1" d="M92.224,6.475v22.288c-7.59,0-14.886,1.29-21.666,3.66c-0.059,0.012-0.106,0.035-0.153,0.059
				C44.715,41.502,26.24,66.007,26.24,94.735H3.952c0-26.206,11.496-49.796,29.702-65.972H4.902V6.475H92.224z"/>
		</g>
	</g>
	<g>
		<path class="st2" d="M122.298,17.881h27.75v9.374h-17.811v19.218h14.061v9.374h-14.061v27.655h-9.938V17.881z"/>
		<path class="st2" d="M157.733,17.881h9.938v65.621h-9.938V17.881z"/>
		<path class="st2" d="M178.542,17.881h9.938v56.247h17.718v9.374h-27.656V17.881z"/>
		<path class="st2" d="M213.885,17.881h28.217v9.374h-18.279v18.281h14.53v9.374h-14.53v19.218h18.279v9.374h-28.217V17.881z"/>
	</g>
	<g>
		<g>
			<linearGradient id="SVGID_3_" gradientUnits="userSpaceOnUse" x1="272.5758" y1="17.7943" x2="272.5758" y2="83.4156">
				<stop  offset="0" style="stop-color:#FFFFFF"/>
				<stop  offset="1" style="stop-color:#DBFF4B"/>
			</linearGradient>
			<path class="st3" d="M257.013,17.794h15.562c4.749,0,8.53,1.422,11.342,4.265c2.812,2.845,4.22,6.641,4.22,11.39V67.76
				c0,4.75-1.408,8.547-4.22,11.39c-2.812,2.845-6.594,4.265-11.342,4.265h-15.562V17.794z M272.107,74.042
				c1.937,0,3.437-0.531,4.5-1.594c1.063-1.062,1.594-2.562,1.594-4.5V33.262c0-1.937-0.531-3.437-1.594-4.5
				c-1.063-1.062-2.563-1.594-4.5-1.594h-5.155v46.873H272.107z"/>
			<linearGradient id="SVGID_4_" gradientUnits="userSpaceOnUse" x1="314.3851" y1="17.7943" x2="314.3851" y2="83.4156">
				<stop  offset="0" style="stop-color:#FFFFFF"/>
				<stop  offset="1" style="stop-color:#DBFF4B"/>
			</linearGradient>
			<path class="st4" d="M320.384,83.416l-7.218-27.093h-5.155v27.093h-9.938V17.794h15.562c4.749,0,8.53,1.422,11.342,4.265
				c2.812,2.845,4.22,6.641,4.22,11.39v7.218c0,3-0.596,5.657-1.782,7.969c-1.188,2.312-2.875,4.124-5.063,5.437l8.344,29.342
				H320.384z M308.011,46.949h5.155c1.937,0,3.437-0.531,4.5-1.594c1.063-1.062,1.594-2.562,1.594-4.5v-7.594
				c0-1.937-0.531-3.437-1.594-4.5c-1.063-1.062-2.563-1.594-4.5-1.594h-5.155V46.949z"/>
			<linearGradient id="SVGID_5_" gradientUnits="userSpaceOnUse" x1="353.9464" y1="16.8566" x2="353.9464" y2="84.3533">
				<stop  offset="0" style="stop-color:#FFFFFF"/>
				<stop  offset="1" style="stop-color:#DBFF4B"/>
			</linearGradient>
			<path class="st5" d="M342.415,79.994c-2.939-2.907-4.406-6.734-4.406-11.484V32.7c0-4.749,1.467-8.578,4.406-11.484
				c2.937-2.906,6.781-4.359,11.53-4.359s8.593,1.453,11.532,4.359c2.937,2.906,4.406,6.735,4.406,11.484V68.51
				c0,4.75-1.469,8.577-4.406,11.484c-2.939,2.906-6.783,4.359-11.532,4.359S345.352,82.9,342.415,79.994z M358.351,73.292
				c1.063-1.125,1.594-2.719,1.594-4.781V32.7c0-2.062-0.531-3.656-1.594-4.781c-1.063-1.124-2.531-1.688-4.406-1.688
				c-1.873,0-3.343,0.563-4.406,1.688c-1.063,1.125-1.594,2.719-1.594,4.781V68.51c0,2.062,0.531,3.656,1.594,4.781
				c1.063,1.124,2.532,1.687,4.406,1.687C355.821,74.978,357.288,74.416,358.351,73.292z"/>
			<linearGradient id="SVGID_6_" gradientUnits="userSpaceOnUse" x1="395.4742" y1="17.7943" x2="395.4742" y2="83.4156">
				<stop  offset="0" style="stop-color:#FFFFFF"/>
				<stop  offset="1" style="stop-color:#DBFF4B"/>
			</linearGradient>
			<path class="st6" d="M379.912,17.794h15.562c4.749,0,8.53,1.422,11.342,4.265c2.812,2.845,4.22,6.641,4.22,11.39v7.687
				c0,4.75-1.408,8.547-4.22,11.389c-2.812,2.845-6.594,4.266-11.342,4.266h-5.624v26.623h-9.938V17.794z M395.005,47.417
				c1.937,0,3.437-0.53,4.5-1.594c1.063-1.061,1.594-2.561,1.594-4.5v-8.062c0-1.937-0.531-3.437-1.594-4.5
				c-1.063-1.062-2.563-1.594-4.5-1.594h-5.155v20.249H395.005z"/>
		</g>
	</g>
	<g>
		<path class="st7" d="M426.476,81.354c-2.439-1.374-4.329-3.281-5.672-5.719c-1.345-2.438-2.015-5.217-2.015-8.343v-2.344
			l9.561-1.031v2.438c0,2.375,0.563,4.251,1.688,5.624c1.126,1.375,2.688,2.062,4.688,2.062c1.937,0,3.484-0.562,4.642-1.687
			c1.155-1.125,1.734-2.656,1.734-4.594c0-2.124-0.609-4.156-1.828-6.094c-1.22-1.937-3.642-4.624-7.266-8.062
			c-4.875-4.624-8.203-8.468-9.984-11.531c-1.782-3.061-2.672-6.406-2.672-10.031c0-4.936,1.345-8.859,4.032-11.765
			c2.686-2.906,6.375-4.359,11.061-4.359c4.688,0,8.375,1.469,11.063,4.406c2.686,2.939,4.03,6.876,4.03,11.812v1.688l-9.561,1.032
			v-1.875c0-2.499-0.469-4.406-1.406-5.718c-0.939-1.312-2.283-1.969-4.032-1.969c-1.749,0-3.094,0.533-4.03,1.594
			c-0.937,1.064-1.406,2.625-1.406,4.688s0.624,4.047,1.875,5.953c1.249,1.907,3.655,4.641,7.218,8.203
			c4.875,4.875,8.203,8.797,9.984,11.765c1.782,2.969,2.67,6.234,2.67,9.796c0,3.126-0.672,5.906-2.015,8.343
			c-1.345,2.438-3.234,4.345-5.67,5.719c-2.439,1.373-5.22,2.062-8.344,2.062C431.693,83.416,428.913,82.727,426.476,81.354z"/>
		<path class="st7" d="M459.285,82.478V16.857h9.938v27.655h11.812V16.857h9.936v65.621h-9.936V53.886h-11.812v28.592H459.285z"/>
		<path class="st7" d="M521.437,67.948H510.75l-2.155,14.531h-9.938l10.875-65.621h13.312l10.875,65.621h-10.124L521.437,67.948z
			 M520.125,58.386l-4.03-27.467l-4.03,27.467H520.125z"/>
		<path class="st7" d="M563.717,82.478l-7.218-27.093h-5.155v27.093h-9.938V16.857h15.562c4.749,0,8.53,1.422,11.342,4.265
			c2.812,2.845,4.22,6.641,4.22,11.39v7.218c0,3-0.596,5.657-1.781,7.969c-1.188,2.312-2.875,4.124-5.063,5.437l8.344,29.342
			H563.717z M551.344,46.012h5.155c1.937,0,3.437-0.531,4.5-1.594c1.063-1.062,1.594-2.562,1.594-4.5v-7.594
			c0-1.937-0.531-3.437-1.594-4.5c-1.063-1.062-2.563-1.594-4.5-1.594h-5.155V46.012z"/>
		<path class="st7" d="M582.184,16.857h28.217v9.374h-18.279v18.281h14.53v9.374h-14.53v19.218h18.279v9.374h-28.217V16.857z"/>
	</g>
</g>
</svg>
