<?xml version="1.0" encoding="utf-8"?>
<!-- Generator: Adobe Illustrator 24.3.0, SVG Export Plug-In . SVG Version: 6.00 Build 0)  -->
<svg version="1.1" id="Layer_1" xmlns="http://www.w3.org/2000/svg" xmlns:xlink="http://www.w3.org/1999/xlink" x="0px" y="0px"
	 viewBox="0 0 50 50" style="enable-background:new 0 0 50 50;" xml:space="preserve">
<style type="text/css">
	.st0{fill:#D9E148;}
</style>
<path d="M46.8,50H3.2C1.4,50,0,48.6,0,46.8V3.2C0,1.4,1.4,0,3.2,0h43.5C48.6,0,50,1.4,50,3.2v43.5C50,48.6,48.6,50,46.8,50z"/>
<g>
	<g>
		<path class="st0" d="M48,15.2V48H36.5V30.3c-5.8,3.8-9.6,10.3-9.6,17.7H15.2c0-14.1,8.9-26.1,21.3-30.7
			C40.1,15.9,43.9,15.2,48,15.2z"/>
	</g>
	<g>
		<path class="st0" d="M48,1.5v11.7c-4,0-7.8,0.7-11.4,1.9c0,0-0.1,0-0.1,0C23,19.9,13.2,32.8,13.2,48H1.5
			c0-13.8,6.1-26.2,15.6-34.7H2V1.5H48z"/>
	</g>
</g>
</svg>
