<?xml version="1.0" encoding="utf-8"?>
<!-- Generator: Adobe Illustrator 24.3.0, SVG Export Plug-In . SVG Version: 6.00 Build 0)  -->
<svg version="1.1" id="Layer_1" xmlns="http://www.w3.org/2000/svg" xmlns:xlink="http://www.w3.org/1999/xlink" x="0px" y="0px"
	 viewBox="0 0 50 50" style="enable-background:new 0 0 50 50;" xml:space="preserve">
<style type="text/css">
	.st0{fill:#D9E148;}
</style>
<path d="M37.568,50H12.432C5.566,50,0,44.434,0,37.568V12.432C0,5.566,5.566,0,12.432,0h25.137C44.434,0,50,5.566,50,12.432v25.137
	C50,44.434,44.434,50,37.568,50z"/>
<g>
	<g>
		<path class="st0" d="M42.915,17.62v25.292h-8.856V29.304c-4.447,2.895-7.39,7.918-7.39,13.608h-9.047
			c0-10.832,6.847-20.097,16.436-23.693C36.816,18.186,39.801,17.62,42.915,17.62z"/>
	</g>
	<g>
		<path class="st0" d="M42.915,7.088v9.047c-3.08,0-6.043,0.524-8.795,1.486c-0.024,0.005-0.043,0.015-0.062,0.024
			c-10.428,3.661-17.927,13.608-17.927,25.268H7.085c0-10.637,4.666-20.212,12.056-26.778H7.471V7.088H42.915z"/>
	</g>
</g>
</svg>
